<svg version="1.1" xmlns="http://www.w3.org/2000/svg" xmlns:xlink="http://www.w3.org/1999/xlink" width="130.78143" height="130.78143" viewBox="0,0,130.78143,130.78143"><g transform="translate(-254.60928,-114.60929)"><g data-paper-data="{&quot;isPaintingLayer&quot;:true}" fill-rule="nonzero" stroke="none" stroke-width="0" stroke-linecap="butt" stroke-linejoin="miter" stroke-miterlimit="10" stroke-dasharray="" stroke-dashoffset="0" style="mix-blend-mode: normal"><path d="M254.60928,245.39072v-130.78143h130.78143v130.78143z" fill="#eaeaea"/><path d="M289.29262,189.0541c-2.20914,0 -4,-1.79086 -4,-4v-10.1082c0,-2.20914 1.79086,-4 4,-4h61.41476c2.20914,0 4,1.79086 4,4v10.1082c0,2.20914 -1.79086,4 -4,4z" fill="#c7c7c7"/><path d="M310.9459,149.29262c0,-2.20914 1.79086,-4 4,-4h10.1082c2.20914,0 4,1.79086 4,4v61.41476c0,2.20914 -1.79086,4 -4,4h-10.1082c-2.20914,0 -4,-1.79086 -4,-4z" fill="#c7c7c7"/></g></g></svg>